<?xml version="1.0" encoding="UTF-8" standalone="no"?>
<!-- Created with Inkscape (http://www.inkscape.org/) -->

<svg
   width="512mm"
   height="512mm"
   viewBox="0 0 512 512"
   version="1.1"
   id="svg1"
   xml:space="preserve"
   xmlns:xlink="http://www.w3.org/1999/xlink"
   xmlns="http://www.w3.org/2000/svg"
   xmlns:svg="http://www.w3.org/2000/svg"><defs
     id="defs1"><linearGradient
       id="linearGradient3"><stop
         style="stop-color:#000000;stop-opacity:1;"
         offset="0"
         id="stop2" /><stop
         style="stop-color:#4c4e98;stop-opacity:1;"
         offset="1"
         id="stop3" /></linearGradient><linearGradient
       id="linearGradient140"><stop
         style="stop-color:#ff00d4;stop-opacity:1;"
         offset="0"
         id="stop140" /><stop
         style="stop-color:#b50505;stop-opacity:1;"
         offset="1"
         id="stop141" /></linearGradient><linearGradient
       id="linearGradient138"><stop
         style="stop-color:#000000;stop-opacity:1;"
         offset="0"
         id="stop138" /><stop
         style="stop-color:#4c4e98;stop-opacity:0.93461835;"
         offset="1"
         id="stop139" /></linearGradient><linearGradient
       xlink:href="#linearGradient138"
       id="linearGradient139"
       x1="206.07169"
       y1="183.76448"
       x2="265.7352"
       y2="183.76448"
       gradientUnits="userSpaceOnUse" /><linearGradient
       xlink:href="#linearGradient140"
       id="linearGradient141"
       x1="249.99721"
       y1="183.66226"
       x2="221.63921"
       y2="183.66226"
       gradientUnits="userSpaceOnUse"
       gradientTransform="matrix(1.0131948,0,0,1.0098278,-2.6943924,-1.9585267)" /><linearGradient
       xlink:href="#linearGradient3"
       id="linearGradient174"
       gradientUnits="userSpaceOnUse"
       x1="206.07169"
       y1="183.76448"
       x2="265.7352"
       y2="183.76448" /><linearGradient
       xlink:href="#linearGradient138"
       id="linearGradient185"
       gradientUnits="userSpaceOnUse"
       x1="206.07169"
       y1="183.76448"
       x2="265.7352"
       y2="183.76448" /></defs><g
     id="layer1"><g
       id="g138"
       style="fill:url(#linearGradient139)"
       transform="matrix(1.4522929,0,0,1.4522929,-115.7891,-115.78732)"><g
         id="g163"
         style="fill:url(#linearGradient185)"
         transform="matrix(5.14048,0,0,5.14048,-956.65686,-688.63763)"><ellipse
           style="opacity:1;fill:url(#linearGradient141);fill-opacity:1;fill-rule:evenodd;stroke:none;stroke-width:0.314336"
           id="path110"
           cx="236.23538"
           cy="183.50873"
           rx="14.366089"
           ry="14.417864"
           transform="matrix(0.99999924,0.0012445,-0.00125281,0.99999924,-1.7021756e-6,4.0528022e-8)" /><path
           id="path99"
           style="opacity:1;mix-blend-mode:normal;fill:url(#linearGradient174);fill-rule:evenodd;stroke-width:0.2;stroke-linejoin:round"
           d="m 245.03933,153.03875 c -7.13322,4.86858 -9.03881,9.85725 -10.42007,16.29455 l 0.0548,0.0895 a 14.50602,14.50602 0 0 1 0.77729,-0.0207 14.50602,14.50602 0 0 1 12.43124,7.03056 c 1.35748,2.25725 2.07473,4.8415 2.07481,7.47549 -8e-5,2.5225 -0.51156,5.31822 -1.75935,7.51349 -0.55594,0.87059 -1.22295,1.69449 -1.91919,2.4539 -1.24622,1.2437 -2.90616,2.35722 -4.74041,3.17007 -1.81327,0.58353 -3.82992,0.80072 -5.90012,0.80071 -6.32208,4e-5 -11.64786,-4.26647 -13.25497,-10.07717 0.30596,-1.27776 1.1984,-2.42732 2.23032,-3.12352 0.67932,-0.44487 2.38998,-1.4794 3.13156,-1.70637 l 1.60826,-0.53119 c 0.81882,0.0485 2.2482,-0.11773 3.38529,-0.19483 0.79735,-0.51167 1.6223,-0.95958 2.27224,-1.8082 0.40946,-0.49569 0.72787,-1.02629 0.85158,-1.63188 l -3.0623,-1.51054 c -1.28264,-0.74293 -2.59009,-1.45306 -3.70055,-2.34664 -0.74985,-0.56131 -1.23424,-1.18799 -1.77101,-1.77814 -0.48001,0.36458 -0.93527,0.75994 -1.36296,1.18322 0.0595,-0.0589 0.11956,-0.1173 0.18015,-0.17512 0.37482,-0.35774 0.7695,-0.69428 1.18281,-1.0082 -0.10396,-0.11429 -0.20968,-0.22719 -0.31988,-0.33798 -0.13679,-0.12069 -0.28791,-0.23765 -0.45057,-0.35185 -0.2638,-0.18521 -0.55753,-0.36298 -0.86665,-0.53692 v 1e-4 c -0.66061,-0.3717 -1.39263,-0.72575 -2.05882,-1.09606 -1.66722,-0.29004 -3.43094,-0.38692 -5.14646,-0.58035 -0.19183,-0.44225 -0.33816,-0.87622 -0.45056,-1.30275 v -1e-4 l -2.12397,-5.04411 c -1.38717,1.0632 -2.91988,2.63901 -4.49633,4.40907 -0.24855,0.37476 -0.50146,0.74741 -0.75397,1.12089 -1.12049,1.6573 -2.23173,3.32816 -2.90466,5.24397 v 1e-4 c -1.09142,3.10718 -1.68516,6.44933 -1.68516,9.9306 0,16.51216 13.35618,29.89795 29.83181,29.89795 8.55514,0 16.26901,-3.60943 21.70871,-9.39146 l 0.005,0.002 c 5.02511,-5.35109 8.11847,-12.57986 8.11847,-20.5081 0,-7.71871 -2.91872,-14.75422 -7.71012,-20.05864 l -0.20468,0.014 c 1.29468,3.56703 2.11299,6.79291 2.45199,9.73819 -3.65113,-7.51649 -10.49343,-12.36144 -15.23307,-21.24708 z m -27.00354,15.89304 c -0.56999,-2.16301 -0.2635,-4.13632 -0.54829,-6.04769 -0.49816,0.24065 -1.02534,0.58185 -1.57558,1.00358 z m 0,1e-4 c 0.11239,0.4265 0.25885,0.86043 0.45066,1.30265 1.71552,0.19343 3.47924,0.29031 5.14646,0.58035 0.66619,0.37031 1.39811,0.72436 2.05872,1.09606 -0.52707,-2.13202 -0.37636,-4.49452 0.19894,-7.12877 -2.25516,0.99854 -4.89719,2.89068 -7.32922,5.39757 z m 7.10575,6.28524 c -0.0512,0.0604 -0.0972,0.12515 -0.14738,0.18648 0.0321,-0.0393 0.0567,-0.0844 0.0893,-0.12335 0.0184,-0.022 0.0396,-0.0413 0.0581,-0.0631 z m -1.10471,1.50863 c -0.0338,0.0531 -0.0715,0.10343 -0.10455,0.15702 0.0332,-0.0537 0.0707,-0.10381 0.10455,-0.15702 z m 25.8359,1.314 c 0.40755,0.43029 0.78858,0.91 1.13618,1.44078 -0.34759,-0.53075 -0.72865,-1.01051 -1.13618,-1.44078 z m -26.73402,0.34321 c -0.0459,0.10019 -0.0921,0.20012 -0.13561,0.30158 0.0436,-0.10169 0.0896,-0.20117 0.13561,-0.30158 z m -9.52075,0.73999 7.35094,3.95529 0.0243,0.0134 v 1e-4 l 0.53542,1.72396 -1e-4,1e-4 -0.53532,-1.72406 -0.0242,-0.0129 v -10e-5 z m 8.81383,1.15517 c -0.0273,0.0947 -0.0495,0.19155 -0.0748,0.28711 0.0254,-0.0958 0.0474,-0.19219 0.0748,-0.28711 z m 29.07262,0.0371 c 0.31248,0.58212 0.58816,1.21595 0.82021,1.90301 -0.23205,-0.68706 -0.50772,-1.32089 -0.82021,-1.90301 z m 0.82021,1.90311 c 0.46411,1.37416 0.75377,2.96124 0.81418,4.77299 0.0566,1.69623 -0.11061,3.60895 -0.50063,5.70891 0.39001,-2.09992 0.55719,-4.0127 0.50063,-5.70891 -0.0604,-1.81179 -0.35005,-3.39881 -0.81418,-4.77299 z m 10.25832,6.3731 0.002,0.0118 -0.14204,0.0733 z m -7.89761,2.59202 c -0.64768,0.65796 -1.35014,1.30035 -2.10748,1.92934 v -1e-4 c 0.75734,-0.62899 1.4598,-1.27129 2.10748,-1.92924 z"
           transform="translate(-1.7021756e-6)" /></g></g></g></svg>
