<?xml version="1.0" encoding="UTF-8"?>
<svg xmlns="http://www.w3.org/2000/svg" xmlns:xlink="http://www.w3.org/1999/xlink" width="497px" height="512px" viewBox="0 0 497 512" version="1.1">
<defs>
<linearGradient id="linear0" gradientUnits="userSpaceOnUse" x1="249.997208" y1="183.662262" x2="221.639206" y2="183.662262" gradientTransform="matrix(8.441288,0.0105028,-0.0105402,8.4113,-1739.285882,-1291.069338)">
<stop offset="0" style="stop-color:rgb(100%,0%,83.137255%);stop-opacity:1;"/>
<stop offset="1" style="stop-color:rgb(70.980392%,1.960784%,1.960784%);stop-opacity:1;"/>
</linearGradient>
<linearGradient id="linear1" gradientUnits="userSpaceOnUse" x1="206.071686" y1="183.764481" x2="265.735199" y2="183.764481" gradientTransform="matrix(8.331363,0,0,8.329446,-1716.85838,-1274.727979)">
<stop offset="0" style="stop-color:rgb(0%,0%,0%);stop-opacity:1;"/>
<stop offset="1" style="stop-color:rgb(29.803922%,30.588235%,59.607843%);stop-opacity:1;"/>
</linearGradient>
</defs>
<g id="surface1">
<path style=" stroke:none;fill-rule:evenodd;fill:url(#linear0);" d="M 369.078125 256.394531 C 369.160156 190.070312 315.640625 136.234375 249.539062 136.152344 C 183.4375 136.070312 129.78125 189.769531 129.699219 256.097656 C 129.617188 322.421875 183.132812 376.257812 249.238281 376.339844 C 315.339844 376.421875 368.992188 322.71875 369.078125 256.394531 Z M 369.078125 256.394531 "/>
<path style=" stroke:none;fill-rule:evenodd;fill:url(#linear1);" d="M 324.652344 0 C 265.222656 40.550781 249.347656 82.105469 237.839844 135.722656 L 238.296875 136.46875 C 240.453125 136.355469 242.613281 136.296875 244.773438 136.296875 C 287.179688 136.296875 326.488281 158.523438 348.339844 194.859375 C 359.652344 213.660156 365.625 235.183594 365.628906 257.125 C 365.625 278.136719 361.367188 301.421875 350.96875 319.707031 C 346.339844 326.960938 340.78125 333.824219 334.980469 340.148438 C 324.597656 350.507812 310.769531 359.78125 295.484375 366.554688 C 280.378906 371.414062 263.578125 373.222656 246.332031 373.222656 C 193.660156 373.222656 149.289062 337.683594 135.898438 289.285156 C 138.449219 278.640625 145.882812 269.066406 154.480469 263.269531 C 160.140625 259.5625 174.390625 250.945312 180.570312 249.054688 L 193.96875 244.628906 C 200.789062 245.035156 212.699219 243.648438 222.171875 243.007812 C 228.816406 238.746094 235.6875 235.015625 241.105469 227.945312 C 244.515625 223.816406 247.167969 219.398438 248.199219 214.351562 L 222.6875 201.769531 C 212 195.582031 201.105469 189.667969 191.855469 182.226562 C 185.609375 177.550781 181.570312 172.328125 177.101562 167.414062 C 173.101562 170.449219 169.308594 173.746094 165.746094 177.269531 C 166.242188 176.777344 166.742188 176.292969 167.246094 175.8125 C 170.367188 172.832031 173.65625 170.027344 177.101562 167.414062 C 176.234375 166.460938 175.351562 165.519531 174.433594 164.597656 C 173.296875 163.59375 172.035156 162.617188 170.679688 161.667969 C 168.484375 160.125 166.035156 158.644531 163.460938 157.195312 C 157.957031 154.101562 151.859375 151.152344 146.308594 148.066406 C 132.417969 145.652344 117.722656 144.84375 103.429688 143.234375 C 101.832031 139.550781 100.613281 135.933594 99.675781 132.382812 L 99.675781 132.378906 L 81.980469 90.367188 C 70.425781 99.222656 57.65625 112.347656 44.519531 127.089844 C 42.449219 130.210938 40.34375 133.316406 38.238281 136.425781 C 28.902344 150.230469 19.644531 164.148438 14.039062 180.105469 L 14.039062 180.109375 C 4.945312 205.988281 0 233.828125 0 262.824219 C 0 400.359375 111.273438 511.855469 248.539062 511.855469 C 319.816406 511.855469 384.082031 481.792969 429.402344 433.632812 L 429.445312 433.648438 C 471.308594 389.078125 497.082031 328.863281 497.082031 262.828125 C 497.082031 198.535156 472.765625 139.933594 432.847656 95.75 L 431.140625 95.867188 C 441.929688 125.578125 448.746094 152.449219 451.570312 176.980469 C 421.152344 114.371094 364.144531 74.015625 324.65625 0.00390625 Z M 99.675781 132.378906 C 94.929688 114.363281 97.480469 97.925781 95.109375 82.007812 C 90.957031 84.011719 86.566406 86.851562 81.980469 90.367188 Z M 99.675781 132.382812 C 100.613281 135.933594 101.832031 139.546875 103.433594 143.230469 C 117.722656 144.84375 132.417969 145.648438 146.308594 148.066406 C 151.859375 151.148438 157.957031 154.097656 163.460938 157.195312 C 159.070312 139.4375 160.324219 119.757812 165.117188 97.816406 C 146.328125 106.132812 124.316406 121.894531 104.054688 142.773438 Z M 158.878906 184.734375 C 158.449219 185.238281 158.066406 185.777344 157.648438 186.285156 C 157.917969 185.960938 158.121094 185.582031 158.394531 185.257812 C 158.546875 185.078125 158.722656 184.914062 158.878906 184.734375 Z M 149.675781 197.300781 C 149.390625 197.742188 149.078125 198.160156 148.804688 198.609375 C 149.078125 198.160156 149.390625 197.742188 149.675781 197.300781 Z M 364.921875 208.246094 C 368.316406 211.828125 371.492188 215.824219 374.386719 220.246094 C 371.492188 215.824219 368.316406 211.828125 364.921875 208.246094 Z M 142.191406 211.101562 C 141.808594 211.9375 141.425781 212.769531 141.0625 213.617188 C 141.425781 212.769531 141.808594 211.941406 142.191406 211.101562 Z M 62.871094 217.265625 L 124.113281 250.210938 L 124.316406 250.324219 L 128.777344 264.683594 L 124.316406 250.324219 L 124.113281 250.21875 L 124.113281 250.214844 Z M 136.300781 226.890625 C 136.074219 227.679688 135.890625 228.484375 135.679688 229.28125 C 135.890625 228.484375 136.074219 227.679688 136.300781 226.890625 Z M 378.515625 227.199219 C 381.121094 232.046875 383.417969 237.324219 385.351562 243.050781 C 383.417969 237.324219 381.121094 232.046875 378.515625 227.199219 Z M 385.351562 243.050781 C 389.214844 254.496094 391.628906 267.714844 392.132812 282.804688 C 392.605469 296.933594 391.210938 312.867188 387.960938 330.359375 C 391.210938 312.867188 392.605469 296.933594 392.132812 282.804688 C 391.628906 267.714844 389.214844 254.496094 385.351562 243.050781 Z M 470.816406 296.132812 L 470.832031 296.234375 L 469.648438 296.84375 Z M 405.019531 317.722656 C 399.621094 323.203125 393.769531 328.554688 387.460938 333.792969 C 393.769531 328.554688 399.621094 323.203125 405.019531 317.722656 Z M 405.019531 317.722656 "/>
</g>
</svg>
